<svg xmlns="http://www.w3.org/2000/svg" width="130mm" height="130mm" viewBox="0 0 942.08 942.08" shape-rendering="geometricPrecision" text-rendering="geometricPrecision" image-rendering="optimizeQuality" fill-rule="evenodd" clip-rule="evenodd"><defs><style>.fil1{fill:#fff;fill-rule:nonzero}</style></defs><g id="Слой_x0020_1"><circle cx="471.04" cy="471.04" r="471.04" fill="#313138"/><g id="_2025924257328"><path class="fil1" d="M629.89 295.99h-19.45v-32.42h-32.42v32.42H364.07v-32.42h-32.42v32.42H312.2c-26.81 0-48.63 21.81-48.63 48.63v285.27c0 26.81 21.81 48.63 48.63 48.63h317.69c26.81 0 48.63-21.81 48.63-48.63V344.62c0-26.81-21.81-48.63-48.63-48.63zm16.21 333.9c0 8.94-7.27 16.21-16.21 16.21H312.2c-8.94 0-16.21-7.27-16.21-16.21V415.93H646.1v213.95zm0-246.37H295.99v-38.9c0-8.94 7.27-16.21 16.21-16.21h19.45v32.42h32.42v-32.42h213.95v32.42h32.42v-32.42h19.45c8.94 0 16.21 7.27 16.21 16.21v38.9z"/><path class="fil1" d="M325.16 449.97h32.42v32.42h-32.42zm64.84 0h32.42v32.42H390zm64.83 0h32.42v32.42h-32.42zm64.84 0h32.42v32.42h-32.42zm64.83 0h32.42v32.42H584.5zM325.16 514.8h32.42v32.42h-32.42zm64.84 0h32.42v32.42H390zm64.83 0h32.42v32.42h-32.42zm64.84 0h32.42v32.42h-32.42zm-194.51 64.84h32.42v32.42h-32.42zm64.84 0h32.42v32.42H390zm64.83 0h32.42v32.42h-32.42zm64.84 0h32.42v32.42h-32.42zm64.83-64.84h32.42v32.42H584.5z"/></g></g></svg>