<svg xmlns="http://www.w3.org/2000/svg" width="130mm" height="130mm" viewBox="0 0 1154.37 1154.37" shape-rendering="geometricPrecision" text-rendering="geometricPrecision" image-rendering="optimizeQuality" fill-rule="evenodd" clip-rule="evenodd"><g id="Слой_x0020_1"><circle cx="577.19" cy="577.19" r="577.19" fill="#313138"/><path id="XMLID_449_" d="M600.3 584.89c72.21 0 130.96-58.75 130.96-130.96 0-72.21-58.75-130.96-130.96-130.96-.28 0-.56 0-.84.02H492.45c-12.76 0-23.11 10.35-23.11 23.11v285.02h-23.11c-12.76 0-23.11 10.35-23.11 23.11s10.35 23.11 23.11 23.11h23.11V808.3c0 12.76 10.35 23.11 23.11 23.11s23.11-10.35 23.11-23.11V677.34h84.74c12.76 0 23.11-10.35 23.11-23.11s-10.35-23.11-23.11-23.11h-84.74V584.9h84.74zm0-215.69c.25 0 .5-.01.75-.01 46.39.4 84 38.26 84 84.74 0 46.73-38.02 84.74-84.74 84.74h-84.74V369.2h84.74z" fill="#fff" fill-rule="nonzero"/></g></svg>