<svg xmlns="http://www.w3.org/2000/svg" width="130mm" height="130mm" viewBox="0 0 3661 3661.01" shape-rendering="geometricPrecision" text-rendering="geometricPrecision" image-rendering="optimizeQuality" fill-rule="evenodd" clip-rule="evenodd"><g id="Слой_x0020_1"><circle cx="1830.5" cy="1830.5" r="1830.5" fill="#313138"/><path d="M2582.47 1047.06h-528.8c-21.69 0-39.27 17.58-39.27 39.27v74.71c0 21.69 17.58 39.27 39.27 39.27h306.47l-437.53 437.53c-15.33 15.33-15.33 40.2 0 55.53l52.83 52.83c7.67 7.67 17.72 11.5 27.76 11.5 10.05 0 20.1-3.84 27.77-11.5l437.54-437.53v306.47c0 21.69 17.58 39.27 39.27 39.27h74.7c21.69 0 39.27-17.58 39.27-39.27v-528.81c0-21.69-17.58-39.27-39.27-39.27zM1300.86 1200.3h306.47c21.69 0 39.27-17.58 39.27-39.27v-74.71c0-21.69-17.58-39.27-39.27-39.27h-528.8c-21.69 0-39.27 17.58-39.27 39.27v528.81c0 21.69 17.58 39.27 39.27 39.27h74.7c21.69 0 39.27-17.58 39.27-39.27v-306.47l437.53 437.53c7.67 7.67 17.72 11.5 27.77 11.5s20.1-3.84 27.76-11.5l52.83-52.83c15.33-15.33 15.33-40.2 0-55.53l-437.53-437.52zm1281.61 806.3h-74.7c-21.68 0-39.27 17.58-39.27 39.27v306.47l-437.53-437.53c-15.33-15.33-40.2-15.33-55.53 0l-52.83 52.83c-15.33 15.33-15.33 40.2 0 55.53l437.53 437.52h-306.47c-21.69 0-39.27 17.58-39.27 39.27v74.7c0 21.69 17.58 39.27 39.27 39.27h528.8c21.69 0 39.27-17.58 39.27-39.27v-528.8c0-21.69-17.58-39.27-39.27-39.27zm-896.91-91.78c-15.33-15.33-40.2-15.33-55.53 0l-437.53 437.53v-306.47c0-21.69-17.58-39.27-39.27-39.27h-74.7c-21.69 0-39.27 17.58-39.27 39.27v528.8c0 21.69 17.58 39.27 39.27 39.27h528.8c21.69 0 39.27-17.58 39.27-39.27v-74.7c0-21.69-17.58-39.27-39.27-39.27h-306.47l437.53-437.53c15.33-15.33 15.33-40.2 0-55.54l-52.83-52.83z" fill="#fff" fill-rule="nonzero" id="_2025815835456"/></g></svg>