<svg xmlns="http://www.w3.org/2000/svg" width="130mm" height="130mm" viewBox="0 0 713.66 713.66" shape-rendering="geometricPrecision" text-rendering="geometricPrecision" image-rendering="optimizeQuality" fill-rule="evenodd" clip-rule="evenodd"><g id="Слой_x0020_1"><circle cx="356.83" cy="356.83" r="356.83" fill="#313138"/><path d="M489.26 323.45v-87.41c0-6.9-5.59-12.49-12.49-12.49h-87.41c0-27.59-22.36-49.95-49.95-49.95-27.59 0-49.95 22.36-49.95 49.95h-87.41c-6.9 0-12.49 5.59-12.49 12.49v109.61c0 6.9 5.59 12.49 12.49 12.48 3.08 0 6.06-1.14 8.35-3.21 10.2-9.29 26-8.54 35.28 1.66 9.29 10.2 8.54 26-1.66 35.28-9.53 8.67-24.09 8.67-33.62 0-5.13-4.61-13.02-4.2-17.64.93a12.504 12.504 0 00-3.21 8.35v109.61c0 6.9 5.59 12.49 12.49 12.49h109.61c6.9 0 12.49-5.59 12.48-12.49 0-3.08-1.14-6.06-3.21-8.35-9.28-10.2-8.54-25.99 1.66-35.28 10.2-9.28 26-8.54 35.28 1.66 8.67 9.53 8.67 24.09 0 33.62-4.61 5.13-4.2 13.02.93 17.64 2.29 2.06 5.27 3.2 8.35 3.21h109.61c6.9 0 12.49-5.59 12.49-12.49v-87.41c27.59 0 49.95-22.36 49.95-49.95 0-27.59-22.36-49.95-49.95-49.95zm0 74.92c-2.84-.04-5.65-.57-8.32-1.57-6.5-2.3-13.64 1.1-15.94 7.6-.47 1.34-.72 2.74-.72 4.16v89.71h-76.55a48.7 48.7 0 001.62-12.49c0-27.59-22.36-49.95-49.95-49.95-27.59 0-49.95 22.36-49.95 49.95 0 4.22.54 8.41 1.62 12.49h-76.55v-76.54a48.7 48.7 0 0012.49 1.62c27.59 0 49.95-22.36 49.95-49.95 0-27.59-22.36-49.95-49.95-49.95-4.21 0-8.41.54-12.49 1.62v-76.55h89.71c6.9 0 12.48-5.6 12.48-12.49 0-1.42-.24-2.83-.72-4.16-1-2.66-1.53-5.47-1.57-8.32 0-13.79 11.18-24.97 24.97-24.97s24.97 11.18 24.97 24.97c-.04 2.84-.57 5.65-1.57 8.32-2.3 6.5 1.1 13.64 7.6 15.94 1.34.47 2.75.72 4.16.72h89.71v89.71c0 6.9 5.6 12.48 12.49 12.48 1.42 0 2.83-.24 4.16-.72 2.66-1 5.47-1.53 8.32-1.57 13.79 0 24.97 11.18 24.97 24.97s-11.18 24.97-24.97 24.97z" fill="#fff" fill-rule="nonzero"/></g></svg>