<svg xmlns="http://www.w3.org/2000/svg" width="130mm" height="130mm" viewBox="0 0 1488.69 1488.69" shape-rendering="geometricPrecision" text-rendering="geometricPrecision" image-rendering="optimizeQuality" fill-rule="evenodd" clip-rule="evenodd"><defs><style>.fil1{fill:#fff;fill-rule:nonzero}</style></defs><g id="Слой_x0020_1"><circle cx="744.34" cy="744.34" r="744.34" fill="#313138"/><g id="_2025924104528"><path class="fil1" d="M817.43 635.71c-11.55 0-23.11 4.15-23.11 13.92v100.72l-47.99-91.54c-11.26-21.63-17.48-23.11-34.07-23.11-11.55 0-23.11 4.44-23.11 14.22v188.11c0 9.48 11.55 14.22 23.11 14.22 11.55 0 23.11-4.74 23.11-14.22V737.31l56.28 102.5c5.63 10.37 15.11 12.44 25.77 12.44 11.55 0 23.11-4.74 23.11-14.22V649.62c0-9.77-11.55-13.92-23.1-13.92zM655.1 676c8.89 0 13.92-9.48 13.92-20.44 0-9.48-4.15-19.85-13.92-19.85H549.64c-10.07 0-20.14 4.74-20.14 14.22v188.11c0 9.48 10.07 14.22 20.14 14.22H655.1c9.78 0 13.92-10.37 13.92-19.85 0-10.96-5.04-20.44-13.92-20.44h-79.39v-50.36h44.44c9.78 0 13.92-9.48 13.92-17.48 0-9.48-5.04-18.07-13.92-18.07h-44.44V676h79.39z"/><path class="fil1" d="M1014.53 744.34l106.69-224.61a29.648 29.648 0 00-1.72-28.58 29.689 29.689 0 00-25.08-13.82H394.28c-16.39 0-29.67 13.28-29.67 29.67v474.67c0 16.39 13.28 29.67 29.67 29.67h700.14c10.17 0 19.64-5.21 25.08-13.82 5.44-8.6 6.09-19.39 1.72-28.58l-106.69-224.61zM423.94 952.01V536.67h623.54l-92.6 194.94a29.644 29.644 0 000 25.46l92.6 194.94H423.94z"/></g></g></svg>