<svg xmlns="http://www.w3.org/2000/svg" width="130mm" height="130mm" viewBox="0 0 2182.87 2182.87" shape-rendering="geometricPrecision" text-rendering="geometricPrecision" image-rendering="optimizeQuality" fill-rule="evenodd" clip-rule="evenodd"><g id="Слой_x0020_1"><circle cx="1091.43" cy="1091.43" r="1091.43" fill="#313138"/><path d="M1574.98 607.89c-16.13-16.13-42.28-16.13-58.41 0l-301.23 301.22V719.7c0-22.81-18.49-41.3-41.3-41.3s-41.3 18.49-41.3 41.3v289.17c0 1.35.07 2.69.2 4.03.06.62.18 1.21.26 1.82.1.73.19 1.45.33 2.17.14.7.33 1.37.5 2.05.16.62.29 1.25.48 1.87.2.67.45 1.32.69 1.97.22.62.42 1.24.68 1.85.25.61.55 1.2.83 1.79.3.63.57 1.26.9 1.87.31.57.65 1.11.99 1.67.36.6.7 1.21 1.09 1.8.41.61.86 1.19 1.3 1.77.37.49.71.99 1.1 1.47 1.73 2.1 3.66 4.04 5.76 5.76.48.39.98.73 1.47 1.1.59.44 1.16.89 1.78 1.3.59.39 1.2.73 1.8 1.09.55.33 1.09.68 1.67.99.61.33 1.25.61 1.87.9.6.28 1.18.58 1.79.83.61.25 1.23.46 1.85.68.65.24 1.3.49 1.97.69.61.18 1.24.32 1.87.48.68.17 1.36.36 2.06.5.72.14 1.45.23 2.17.33.61.09 1.2.2 1.82.26 1.34.13 2.69.2 4.03.2h289.17c22.81 0 41.3-18.49 41.3-41.3s-18.49-41.3-41.3-41.3h-189.41l301.22-301.23c16.13-16.13 16.13-42.28 0-58.41zm-525.06 562.08c-.06-.61-.18-1.21-.26-1.82-.1-.73-.19-1.45-.33-2.17-.14-.7-.33-1.37-.5-2.06-.16-.62-.29-1.25-.48-1.87-.2-.67-.45-1.32-.69-1.97-.22-.62-.42-1.24-.68-1.85-.25-.61-.55-1.2-.83-1.79-.3-.62-.57-1.26-.9-1.87-.31-.57-.65-1.11-.99-1.67-.36-.6-.7-1.21-1.09-1.8-.41-.61-.86-1.19-1.3-1.78-.37-.49-.71-.99-1.1-1.47-1.73-2.1-3.66-4.04-5.76-5.76-.48-.39-.98-.73-1.47-1.1-.59-.44-1.16-.9-1.78-1.3-.59-.39-1.2-.73-1.8-1.09-.55-.33-1.09-.68-1.67-.99-.61-.33-1.25-.6-1.87-.9-.6-.28-1.18-.58-1.79-.83-.61-.25-1.23-.46-1.85-.68-.65-.24-1.3-.49-1.97-.69-.61-.19-1.24-.32-1.87-.48-.68-.17-1.36-.36-2.06-.5-.72-.14-1.45-.23-2.17-.33-.61-.09-1.21-.2-1.82-.26-1.36-.13-2.72-.2-4.08-.2H719.68c-22.81 0-41.3 18.49-41.3 41.3s18.49 41.3 41.3 41.3h189.41l-301.23 301.23c-16.13 16.13-16.13 42.28 0 58.41 16.13 16.13 42.28 16.13 58.41 0l301.23-301.22v189.41c0 22.81 18.49 41.3 41.3 41.3s41.3-18.49 41.3-41.3v-289.13c0-1.36-.07-2.72-.2-4.08z" fill="#fff" fill-rule="nonzero" id="_2025921882496"/></g></svg>