<svg xmlns="http://www.w3.org/2000/svg" width="130mm" height="130mm" viewBox="0 0 639.57 639.57" shape-rendering="geometricPrecision" text-rendering="geometricPrecision" image-rendering="optimizeQuality" fill-rule="evenodd" clip-rule="evenodd"><g id="Слой_x0020_1"><circle cx="319.79" cy="319.79" r="319.79" fill="#313138"/><path d="M445.27 178.94H194.3c-21.18 0-38.41 17.23-38.41 38.41V371c0 21.18 17.23 38.41 38.41 38.41h112.68v25.61H240.4v25.61h158.78v-25.61H332.6v-25.61h112.68c21.18 0 38.41-17.23 38.41-38.41V217.35c0-21.18-17.23-38.41-38.41-38.41zm12.8 192.07c0 7.06-5.74 12.8-12.8 12.8H194.3c-7.06 0-12.8-5.74-12.8-12.8V217.36c0-7.06 5.74-12.8 12.8-12.8h250.97c7.06 0 12.8 5.74 12.8 12.8v153.65z" fill="#fff" fill-rule="nonzero"/></g></svg>