<?xml version="1.0" encoding="iso-8859-1"?><svg viewBox="0 0 640 640" xmlns="http://www.w3.org/2000/svg" xmlns:xlink="http://www.w3.org/1999/xlink"><style>:root>svg{display:none}:root>svg:target{display:block}</style><svg viewBox="0 0 512 512" id="analytics" xmlns="http://www.w3.org/2000/svg"><path d="M208 408h24v16h-24z"/><path d="M472 0H40C17.944 0 0 17.944 0 40v344c0 22.056 17.944 40 40 40h40v-16H40c-13.232 0-24-10.768-24-24V80h480v304c0 13.232-10.768 24-24 24v16c22.056 0 40-17.944 40-40V40c0-22.056-17.944-40-40-40zm24 64H16V40c0-13.232 10.768-24 24-24h432c13.232 0 24 10.768 24 24v24z"/><circle cx="40" cy="40" r="8"/><circle cx="72" cy="40" r="8"/><circle cx="104" cy="40" r="8"/><path d="M416 320h-48v-32c0-4.416-3.584-8-8-8H256.488c4.784-12.44 7.512-25.896 7.512-40 0-4.416-3.584-8-8-8h-96v-96c0-4.416-3.584-8-8-8-61.76 0-112 50.24-112 112s50.24 112 112 112c41.344 0 77.448-22.584 96.848-56H352v24h-64c-22.056 0-40 17.944-40 40v80c0 22.056 17.944 40 40 40h128c22.056 0 40-17.944 40-40v-80c0-22.056-17.944-40-40-40zM56 240c0-50.24 38.8-91.592 88-95.664V238.4l-36.144 86.752C77.088 309.144 56 277.016 56 240zm183.16 40h-32.64c-3.312-9.288-12.112-16-22.528-16-13.232 0-24 10.768-24 24s10.768 24 24 24c10.416 0 19.216-6.712 22.528-16h23.328C212.4 320.184 184.032 336 152 336c-10.256 0-20.128-1.656-29.4-4.648L157.336 248h90.328c-.944 11.352-3.944 22.104-8.504 32zM192 288c0 4.408-3.592 8-8 8s-8-3.592-8-8c0-4.408 3.592-8 8-8s8 3.592 8 8zm248 152c0 13.232-10.768 24-24 24H288c-13.232 0-24-10.768-24-24v-80c0-13.232 10.768-24 24-24h128c13.232 0 24 10.768 24 24v80z"/><path d="M296 96c-2.12 0-4.16.84-5.656 2.344l-28.92 28.92C241.288 107.952 214.04 96 184 96c-4.416 0-8 3.584-8 8v104c0 4.416 3.584 8 8 8h104c4.416 0 8-3.584 8-8 0-25.96-8.96-49.832-23.84-68.848L299.312 112H336V96h-40zm-16.336 104H192v-87.664c22.456 1.864 42.696 11.544 58.12 26.232l-15.776 15.776 11.312 11.312 15.104-15.104c10.536 14.032 17.376 30.984 18.904 49.448zM352 96h128v16H352zM352 128h128v16H352zM352 160h128v16H352zM192 496v-80c0-4.416-3.584-8-8-8h-32v-24c0-4.416-3.584-8-8-8h-40c-4.416 0-8 3.584-8 8v64H64c-4.416 0-8 3.584-8 8v40H16v16h208v-16h-32zm-96 0H72v-32h24v32zm40-80v80h-24V392h24v24zm40 80h-24v-72h24v72zM408.416 365.464l-18.496 55.504-39.048-65.088c-1.544-2.576-4.32-4.072-7.4-3.864-3 .2-5.624 2.064-6.808 4.832l-19.344 45.144-15.648-15.648a8.007 8.007 0 00-13.088 2.688l-16 40 14.848 5.944 11.496-28.736 15.424 15.424a7.985 7.985 0 007.168 2.2 7.973 7.973 0 005.84-4.704l17.84-41.624 39.952 66.584a7.97 7.97 0 007.72 3.832 8.012 8.012 0 006.72-5.424l24-72-15.176-5.064zM472 208h-80c-4.416 0-8 3.584-8 8v64c0 4.416 3.584 8 8 8h80c4.416 0 8-3.584 8-8v-64c0-4.416-3.584-8-8-8zm-22.808 16L432 237.76 414.8 224h34.392zM400 232.64L419.2 248 400 263.36v-30.72zM414.8 272l17.2-13.76L449.2 272h-34.4zm49.2-8.648L444.8 248l19.2-15.36v30.712z"/></svg><svg viewBox="0 0 491.996 491.996" id="arrow" xmlns="http://www.w3.org/2000/svg"><path d="M484.132 124.986l-16.116-16.228c-5.072-5.068-11.82-7.86-19.032-7.86-7.208 0-13.964 2.792-19.036 7.86l-183.84 183.848L62.056 108.554c-5.064-5.068-11.82-7.856-19.028-7.856s-13.968 2.788-19.036 7.856l-16.12 16.128c-10.496 10.488-10.496 27.572 0 38.06l219.136 219.924c5.064 5.064 11.812 8.632 19.084 8.632h.084c7.212 0 13.96-3.572 19.024-8.632l218.932-219.328c5.072-5.064 7.856-12.016 7.864-19.224 0-7.212-2.792-14.068-7.864-19.128z"/></svg><svg viewBox="0 0 174.239 174.239" id="check" xmlns="http://www.w3.org/2000/svg"><path d="M74.439 157.519a4.199 4.199 0 01-6.111.313L1.38 94.468a4.447 4.447 0 01-.173-6.267l21.33-22.539a4.447 4.447 0 016.267-.173L65.375 100.1a4.199 4.199 0 006.111-.313l71.447-83.015a4.445 4.445 0 016.251-.468l23.518 20.242a4.446 4.446 0 01.468 6.252L74.439 157.519z"/></svg><svg viewBox="0 0 64 64" id="commission" xmlns="http://www.w3.org/2000/svg"><path d="M31 18c0-6.065-4.935-11-11-11S9 11.935 9 18c0 2.527.866 4.851 2.304 6.711-.192.4-.304.836-.304 1.289v6.043A6.463 6.463 0 005.535 29 2.538 2.538 0 003 31.535c0 .502.147.988.426 1.406l1.029 1.543a4.47 4.47 0 01.712 1.916l.709 5.669c.107.862.439 1.685.962 2.38L9 47.333V49H7v14h22V49h-2v-1.764l1.473-2.945A5.04 5.04 0 0029 42.056V26c0-.453-.113-.889-.304-1.289A10.932 10.932 0 0031 18zM20 9c4.963 0 9 4.038 9 9s-4.037 9-9 9-9-4.038-9-9 4.037-9 9-9zm7 42v2H9v-2zM9 61v-6h18v6zm17.684-17.603L25 46.764V49H11v-2.333L8.438 43.25a2.994 2.994 0 01-.577-1.427l-.709-5.669a6.472 6.472 0 00-1.032-2.777l-1.03-1.545A.536.536 0 015.535 31a4.46 4.46 0 014.36 3.574l1.248 6.242.614.154A4.275 4.275 0 0115 45.123V47h2v-1.877a6.264 6.264 0 00-4-5.842V26.479c.613.507 1.286.941 2 1.307V38h2v-9.426a10.99 10.99 0 002 .376V38h2v-9.051a10.821 10.821 0 002-.376V38h2V27.786c.714-.366 1.387-.8 2-1.307v15.577c0 .463-.109.927-.316 1.341z"/><path d="M20 21c-.552 0-1-.449-1-1h-2c0 1.302.839 2.402 2 2.816V25h2v-2h2v-3c0-1.654-1.346-3-3-3-.552 0-1-.449-1-1v-1h1c.552 0 1 .449 1 1h2a2.996 2.996 0 00-2-2.816V11h-2v2h-2v3c0 1.654 1.346 3 3 3 .552 0 1 .449 1 1v1zM60.574 31.059l-1.029-1.543a4.47 4.47 0 01-.712-1.916l-.709-5.669a4.984 4.984 0 00-.962-2.38L55 16.667V15h2V1H35v14h2v1.764l-1.473 2.945A5.04 5.04 0 0035 21.944V38c0 .199.022.395.06.586C32.566 40.956 31 44.295 31 48c0 7.168 5.832 13 13 13s13-5.832 13-13c0-3.705-1.566-7.044-4.06-9.414.038-.191.06-.387.06-.586v-6.043A6.463 6.463 0 0058.465 35 2.538 2.538 0 0061 32.465c0-.502-.147-.988-.426-1.406zM55 3v10H37V9h8V7h-8V3zm0 45c0 6.065-4.935 11-11 11s-11-4.935-11-11 4.935-11 11-11 11 4.935 11 11zm3.465-15a4.46 4.46 0 01-4.36-3.574l-1.248-6.242-.614-.154A4.275 4.275 0 0149 18.877V17h-2v1.877a6.264 6.264 0 004 5.842v12.344a12.907 12.907 0 00-2-1.06V26h-2v9.363c-.65-.154-1.317-.26-2-.313V26h-2v9.051c-.683.052-1.35.158-2 .313V26h-2v10.003c-.701.293-1.367.654-2 1.06V21.944c0-.463.109-.927.316-1.342L39 17.236V15h14v2.333l2.562 3.417c.313.417.513.91.577 1.427l.709 5.669a6.472 6.472 0 001.032 2.777l1.029 1.543a.535.535 0 01-.444.834z"/><path d="M37.284 53.292l11.999-11.999 1.414 1.414-11.999 11.999zM48 49c-1.654 0-3 1.346-3 3s1.346 3 3 3 3-1.346 3-3-1.346-3-3-3zm0 4a1.001 1.001 0 010-2 1.001 1.001 0 010 2zM40 47c1.654 0 3-1.346 3-3s-1.346-3-3-3-3 1.346-3 3 1.346 3 3 3zm0-4a1.001 1.001 0 11-1 1c0-.551.448-1 1-1zM50 11c1.654 0 3-1.346 3-3s-1.346-3-3-3-3 1.346-3 3 1.346 3 3 3zm0-4a1.001 1.001 0 11-1 1c0-.551.448-1 1-1z"/></svg><svg viewBox="0 0 511.998 511.998" id="email" xmlns="http://www.w3.org/2000/svg"><path d="M431.665 139.258V17.218H80.333v122.04L0 196.638V494.78h511.998V196.638zM181.992 342.069L30 450.633V233.505zm74.007-15.994L450.19 464.78H61.808zm74.007 15.994l151.992-108.564v217.127zm141.185-137.712l-39.526 28.232v-56.464zM401.665 47.218v206.8l-97.466 69.618-48.2-34.428-48.2 34.428-97.466-69.618v-206.8zM80.333 232.59l-39.526-28.232 39.526-28.232z"/><path d="M152.716 86.074h103.283v30H152.716zM152.716 154.929h206.566v30H152.716zM152.716 223.785h206.566v30H152.716z"/></svg><svg viewBox="-18 0 484 484.8" id="feature" xmlns="http://www.w3.org/2000/svg"><path d="M257.2 240.8l-41.598 41.598c-4.801 4.801-7.204 10.403-7.204 16.801V400l75.204-75.2h89.597l75.2 75.2V299.2c0-6.4-2.399-12.802-7.2-16.802l-41.597-41.597L402.8 224c14.398-68.8-4-140.8-50.403-195.2l-24-28.8-24 28.8C258.801 82.399 239.602 154.399 254 224zm-32.802 58.4c0-2.4.801-4 2.403-5.598l34.398-34.403 11.2 54.403-48 48zM430 293.601c1.602 1.597 2.398 3.199 2.398 5.597v62.403L385.2 314.398 396.4 260zM316.398 39.199l12-14.398 12 14.398C352.398 53.602 362 68.801 370 84.801h-83.2c8-16 17.598-31.2 29.598-45.602zm-36.796 61.602h96.796c15.204 38.398 18.403 80 10.403 120.8l-8 39.2h-26.403v16h24l-6.398 32h-33.602v-48h-16v48h-33.597l-6.403-32h24v-16H277.2l-8-39.2c-8-40.8-4-82.402 10.403-120.8zm0 0"/><path d="M328.398 228.8c26.403 0 48-21.6 48-48 0-26.402-21.597-48-48-48-26.398 0-48 21.598-48 48 0 26.4 21.602 48 48 48zm0-80c17.602 0 32 14.4 32 32 0 17.598-14.398 32-32 32-17.597 0-32-14.402-32-32 0-17.6 14.403-32 32-32zm0 0M448.398 484.8v-24c0-24-17.597-44-40.796-47.198-3.204-18.403-16.801-33.602-35.204-38.403-.796-14.398-5.597-28-14.398-39.199l-12.8 9.602c16 19.199 14.402 48-4 65.597l-12.802 14.403L314 411.199c-17.602-17.597-19.2-45.597-4-65.597L297.2 336c-8.802 11.2-13.598 24.8-14.4 39.2-18.402 4.8-32 20-35.198 38.402C226 416.8 208.398 436.8 208.398 460.8v24h16v-24c0-17.602 14.403-32 32-32h8v-8c0-13.602 8.801-25.602 20.801-29.602 2.403 12 8.801 23.2 17.602 32l25.597 25.602L354 423.199c8.8-8.8 15.2-20 17.602-32C384.398 396 392.398 408 392.398 420.801v8h8c17.602 0 32 14.398 32 32v24zm0 0"/><path d="M256.398 476.8v8h16v-8c0-13.6 10.403-24 24-24v-16c-22.398 0-40 17.598-40 40zm0 0M400.398 484.8v-8c0-22.402-17.597-40-40-40v16c13.602 0 24 10.4 24 24v8zm0 0M133.2 380.8l59.198 59.2v-68.8c0-6.4-2.398-12.802-7.199-16.802L154 323.2l3.2-14.398c12-61.602-4.802-124.801-46.4-172l-14.402-16L82 137.6C40.398 184 23.602 248 35.602 309.602L38.8 324 7.6 355.2c-4.8 4-7.203 9.6-7.203 16V440l59.204-59.2zm40.8-15.198c1.602 1.597 2.398 3.199 2.398 5.597v30.403L145.2 370.398l5.602-28zM94 148l2.398-3.2 2.403 3.2c11.199 12 20 26.398 27.199 40.8H66c8-14.402 16.8-28.8 28-40.8zm-34.398 56.8h73.597c12 32 15.2 67.2 8.801 101.598l-2.398 10.403h-19.204v16h16l-6.398 32h-25.602v-48h-16v48H62.801l-6.403-32h16v-16H53.2l-2.398-10.403c-6.403-34.398-3.2-69.597 8.8-101.597zM16.398 371.2c0-2.4.801-4 2.403-5.598L42 342.398l5.602 28-31.204 31.204zm0 0"/><path d="M16.398 484.8h16c0-23.198 16.801-43.198 40-47.198 1.602 3.199 4 6.398 7.204 9.597l17.597 17.602 17.602-17.602c2.398-2.398 4.8-5.597 7.199-9.597 23.2 4 40 24 40 47.199h16c0-30.403-20.8-56-50.398-62.403 1.597-10.398-.801-20.796-6.403-29.597l-13.597 8.8C114.8 412 113.199 426.399 104.398 436l-8 5.602L90.801 436c-8.801-8.8-10.403-23.2-3.2-34.398L74 392.8c-5.602 8.8-8 19.199-6.398 29.597-30.403 6.403-51.204 32-51.204 62.403zm0 0M96.398 292.8c17.602 0 32-14.402 32-32 0-17.6-14.398-32-32-32-17.597 0-32 14.4-32 32 0 17.598 14.403 32 32 32zm0-48c8.801 0 16 7.2 16 16s-7.199 16-16 16c-8.796 0-16-7.198-16-16s7.204-16 16-16zm0 0M200.398 36.8h16v40h-16zm0 0M152.398 100.8h16v24h-16zm0 0M72.398 52.8h16v40h-16zm0 0M136.398 4.8h16v32h-16zm0 0M184.398 180.8h16v24h-16zm0 0M.398 100.8h16v24h-16zm0 0M424.398 12.8h16v40h-16zm0 0M256.398 12.8h16v24h-16zm0 0"/></svg><svg viewBox="0 0 512 512" id="honesty" xmlns="http://www.w3.org/2000/svg"><path d="M120 376h80v16h-80z"/><path d="M64 410c2 35.1 31.2 62.4 66.4 62H208v32h16v-64h152v64h16v-32h48c4.4 0 8-3.6 8-8 0-.7-.1-1.3-.2-1.9l-2.2-8.7c-7.4-29.8-7.4-60.9 0-90.7l2.2-8.7c.1-.6.1-1.3 0-1.9h.2V16c0-4.4-3.6-8-8-8H128C92.7 8 64 36.7 64 72v338zm152 14c-4.4 0-8 3.6-8 8v24h-77.6c-26.5.5-48.7-20-50.4-46.5-.8-26.5 20-48.6 46.5-49.5h84c8.6 8.4 13.5 20 13.5 32v32h-8zm56-224V72c0-8.8 7.2-16 16-16s16 7.2 16 16v128h16V88c0-8.8 7.2-16 16-16s16 7.2 16 16v112h16v-72c0-8.8 7.2-16 16-16s16 7.2 16 16v138.3c0 23.2-6.5 45.9-18.8 65.5-13.9 22.2-21.2 47.8-21.2 74V424H240v-32c0-17.6-7.6-34.3-20.8-45.8l-104.7-91.6 1.5-2.3c8.5-12.7 25.7-16.2 38.4-7.7.8.5 1.6 1.1 2.4 1.8l34.8 29c8.4 7 20.8 5.8 27.8-2.5 3-3.5 4.6-8 4.6-12.6V88c0-8.8 7.2-16 16-16s16 7.2 16 16v112h16zm157.8 256H392v-24c0-4.4-3.6-8-8-8h-8v-8h33.7v-16h-33.5c.6-13.7 3.6-27.2 8.6-40h44.9c-7.6 31.5-7.6 64.5.1 96zM80 72c0-26.5 21.5-48 48-48h304v320h-39.4c.7-1.3 1.4-2.5 2.2-3.8 13.9-22.2 21.2-47.8 21.2-74V128c0-17.7-14.3-32-32-32-5.6 0-11.1 1.5-16 4.3V88c0-17.7-14.3-32-32-32-6.3 0-12.5 1.9-17.8 5.4-5.8-16.7-24.1-25.5-40.8-19.6-9.2 3.2-16.4 10.4-19.6 19.6-14.7-9.8-34.6-5.9-44.4 8.8-3.5 5.3-5.4 11.5-5.4 17.8v172.3c-.1 2.1-2 3.8-4.1 3.6-.7 0-1.4-.3-2-.7l-34.8-29c-18.5-15.4-46.1-12.9-61.5 5.6-1 1.2-1.9 2.4-2.8 3.7l-5.4 8.1c-2.2 3.3-1.6 7.8 1.4 10.5l93.7 82H128c-17.3-.1-33.9 7-45.9 19.4l-2.1 2.4V72z"/><path d="M136 408h64v16h-64z"/></svg><svg viewBox="0 0 512 512" id="instagram" xmlns="http://www.w3.org/2000/svg"><path d="M305 256c0 27.063-21.938 49-49 49s-49-21.938-49-49 21.938-49 49-49 49 21.938 49 49zm0 0"/><path d="M370.594 169.305a45.546 45.546 0 00-10.996-16.903 45.514 45.514 0 00-16.903-10.996c-5.18-2.011-12.96-4.406-27.293-5.058-15.504-.707-20.152-.86-59.402-.86-39.254 0-43.902.149-59.402.856-14.332.656-22.118 3.05-27.293 5.062a45.483 45.483 0 00-16.903 10.996 45.572 45.572 0 00-11 16.903c-2.011 5.18-4.406 12.965-5.058 27.297-.707 15.5-.86 20.148-.86 59.402 0 39.25.153 43.898.86 59.402.652 14.332 3.047 22.114 5.058 27.293a45.563 45.563 0 0010.996 16.903 45.514 45.514 0 0016.903 10.996c5.18 2.015 12.965 4.41 27.297 5.062 15.5.707 20.144.856 59.398.856 39.258 0 43.906-.149 59.402-.856 14.332-.652 22.118-3.047 27.297-5.062a48.68 48.68 0 0027.899-27.899c2.011-5.18 4.406-12.96 5.062-27.293.707-15.504.856-20.152.856-59.402 0-39.254-.149-43.902-.856-59.402-.652-14.332-3.047-22.118-5.062-27.297zM256 331.485c-41.691 0-75.488-33.794-75.488-75.485s33.797-75.484 75.488-75.484c41.688 0 75.484 33.793 75.484 75.484S297.688 331.484 256 331.484zm78.469-136.313c-9.742 0-17.64-7.899-17.64-17.64s7.898-17.641 17.64-17.641 17.64 7.898 17.64 17.64c-.004 9.742-7.898 17.64-17.64 17.64zm0 0"/><path d="M256 0C114.637 0 0 114.637 0 256s114.637 256 256 256 256-114.637 256-256S397.363 0 256 0zm146.113 316.605c-.71 15.649-3.199 26.333-6.832 35.684a75.164 75.164 0 01-42.992 42.992c-9.348 3.633-20.035 6.117-35.68 6.832-15.675.715-20.683.887-60.605.887-39.926 0-44.93-.172-60.61-.887-15.644-.715-26.331-3.199-35.68-6.832a72.018 72.018 0 01-26.038-16.957 72.044 72.044 0 01-16.953-26.035c-3.633-9.348-6.121-20.035-6.832-35.68-.723-15.68-.891-20.687-.891-60.609s.168-44.93.887-60.605c.71-15.649 3.195-26.332 6.828-35.684a72.013 72.013 0 0116.96-26.035 72.003 72.003 0 0126.036-16.957c9.352-3.633 20.035-6.117 35.684-6.832C211.07 109.172 216.078 109 256 109s44.93.172 60.605.89c15.649.712 26.332 3.196 35.684 6.825a72.061 72.061 0 0126.04 16.96 72.027 72.027 0 0116.952 26.036c3.637 9.352 6.121 20.035 6.836 35.684.715 15.675.883 20.683.883 60.605s-.168 44.93-.887 60.605zm0 0"/></svg><svg viewBox="0 0 480 480" id="pay" xmlns="http://www.w3.org/2000/svg"><path d="M400 345.887l-20.375-12.207A40.09 40.09 0 00359.07 328h-30.664a72.366 72.366 0 00-18.597 2.398L217.418 355.2a32.219 32.219 0 00-21.754 20.176l-81.266-43.965a31.84 31.84 0 00-21.75-3.594 30.02 30.02 0 00-8.09 2.657 31.452 31.452 0 00-13.742 12.8 32.056 32.056 0 00-4.23 15.918 31.702 31.702 0 0015.812 27.672l145.649 87.145A39.995 39.995 0 00249.105 480h112.72a39.882 39.882 0 0014.702-2.8L400 467.93V480h80V320h-80zM370.648 462.32a24.068 24.068 0 01-8.8 1.68H249.105a24.07 24.07 0 01-12.746-3.664L90.512 373.09a15.915 15.915 0 01-7.953-13.89 16.25 16.25 0 012.144-8 15.728 15.728 0 016.871-6.345 15.076 15.076 0 014-1.296 16.839 16.839 0 013.067-.286c2.75-.007 5.453.711 7.84 2.079l88.12 47.617c.102.488.102.969.231 1.457 3.79 13.965 16.457 23.664 30.93 23.68a78.627 78.627 0 0013.183-2.352l83.117-22.242-4.125-15.457-82.847 22.144c-3.649.84-8.356 1.801-9.328 1.883a16 16 0 01-15.465-11.785c-.258-.969-.41-1.961-.465-2.961 0 0-.062-1.938 0-2.617a16.17 16.17 0 0111.77-14.11l92.351-24.707A55.913 55.913 0 01328.406 344h30.664c4.344 0 8.606 1.18 12.328 3.41L400 364.535v86.184zM416 336h48v128h-48zm0 0M329.953 64L287.04 21.09A71.5 71.5 0 00236.13 0H135.55a40.273 40.273 0 00-17.887 4.223l-17.93 8.968a23.71 23.71 0 01-11.605 2.512L80 15.418V0H0v176h80v-24h13.602l4.84 3.2A88.197 88.197 0 00144 169.862V272h336V64zM64 160H16V16h48zm43.297-18.113L98.398 136H80V31.426l7.543.27a40.162 40.162 0 0019.344-4.192l17.914-8.969A24.046 24.046 0 01135.55 16h100.578a55.622 55.622 0 0139.598 16.398L307.328 64h-66.015l-19.418-19.414-11.31 11.309 56.513 56.515c6.277 6.25 6.297 16.406.047 22.688-6.254 6.277-16.41 6.297-22.688.047l-47.2-47.2-5.6 4.801c-15.466 13.133-38.071 13.469-53.923.797l-4.636-3.758-10.082 12.43 4.687 3.8A58.317 58.317 0 00144 115.2v38.656a72.144 72.144 0 01-36.703-11.968zm113.8-7.489l12.071 12.075c12.531 12.343 32.648 12.363 45.2.039-11.743 18.183-7.11 42.383 10.519 54.941 17.629 12.559 42.015 9.031 55.363-8.004 13.348-17.039 10.938-41.562-5.477-55.672-16.41-14.109-41.02-12.816-55.859 2.934A31.463 31.463 0 00285.535 112h107.13c3.44 20.129 19.206 35.895 39.335 39.336v33.328c-20.129 3.441-35.895 19.207-39.336 39.336H231.336c-3.441-20.129-19.207-35.895-39.336-39.336v-33.328a47.756 47.756 0 0029.098-16.938zM288 168c0-13.254 10.746-24 24-24s24 10.746 24 24-10.746 24-24 24-24-10.746-24-24zm176 88H160V118.55a58.17 58.17 0 0036-9.198L209.648 123A31.923 31.923 0 01184 136h-8v64h8c17.672 0 32 14.328 32 32v8h192v-8c0-17.672 14.328-32 32-32h8v-64h-8c-17.672 0-32-14.328-32-32v-8H273.312l-16-16H464zm0 0"/></svg><svg viewBox="0 0 512 512" id="support" xmlns="http://www.w3.org/2000/svg"><path d="M488 424h-16V160c0-3.6-.6-7.3-1.7-10.8 1.1-4.3 1.7-8.8 1.7-13.2 0-39.7-43.1-72-96-72-45.6 0-83.8 24-93.5 56h-31.9c3.5-7.5 5.4-15.7 5.4-24 0-39.7-43.1-72-96-72S64 56.3 64 96c.1 8.8 2.2 17.5 6.2 25.3-17.7 4.5-30.1 20.4-30.2 38.7v264H24c-4.4 0-8 3.6-8 8v32c0 13.3 10.7 24 24 24h432c13.3 0 24-10.7 24-24v-32c0-4.4-3.6-8-8-8zM376 80c44.1 0 80 25.1 80 56s-35.9 56-80 56c-2.1 0-4.2.8-5.7 2.3L352 212.7v-17.1c0-3.6-2.4-6.7-5.8-7.7-30-8.5-50.2-29.4-50.2-51.9 0-30.9 35.9-56 80-56zM160 40c44.1 0 80 25.1 80 56 0 22.5-20.2 43.3-50.2 51.9-3.4 1-5.8 4.1-5.8 7.7v17.1l-18.3-18.3c-1.5-1.5-3.5-2.3-5.7-2.3-44.1 0-80-25.1-80-56S115.9 40 160 40zM56 160c0-13.3 10.7-24 24-24h.3c20.1 20.5 47.7 32.1 76.4 32l29.7 29.7c3.1 3.1 8.2 3.1 11.3 0 1.5-1.5 2.4-3.6 2.3-5.7v-30.5c15.3-4.9 29.1-13.7 40-25.5h40c0 28.6 21.8 53.8 56 65.5V232c0 4.4 3.6 8 8 8 2.1 0 4.2-.8 5.7-2.3l29.7-29.7c28.9.1 56.5-11.5 76.6-32.3V424H56V160zm232 280c0 4.4-3.6 8-8 8h-48c-4.4 0-8-3.6-8-8h64zm192 24c0 4.4-3.6 8-8 8H40c-4.4 0-8-3.6-8-8v-24h176c0 13.3 10.7 24 24 24h48c13.3 0 24-10.7 24-24h176v24z"/><path d="M344 375.9c-.1-22.6-14.1-42.7-35.2-50.7L280 314.5v-17c14.8-8.6 24-24.4 24-41.5v-8c4.4 0 8-3.6 8-8v-16c0-30.9-25.1-56-56-56s-56 25.1-56 56v16c0 4.4 3.6 8 8 8v8c0 17.1 9.2 32.9 24 41.5v17l-28.9 10.8C182 333.2 168 353.4 168 376H88v16h336v-16l-80-.1zM216 224c0-22.1 17.9-40 40-40s40 17.9 40 40v8h-4.7l-13.7-13.7c-2.7-2.7-6.9-3.1-10.1-1l-22 14.7H216v-8zm8 24h24c1.6 0 3.1-.5 4.4-1.3l18.5-12.4 11.4 11.4c1.5 1.5 3.5 2.3 5.7 2.3v8c0 17.7-14.3 32-32 32s-32-14.3-32-32v-8zm32 56c2.7 0 5.4-.3 8-.7v13.4l-8 8-8-8v-13.4c2.6.4 5.3.7 8 .7zm-65.2 50.2c4.4-6.4 10.7-11.2 17.9-13.9l29.2-11 12.4 12.4c3.1 3.1 8.2 3.1 11.3 0l12.4-12.4 29.2 10.9c14.9 5.6 24.8 19.9 24.8 35.8H184c0-7.8 2.4-15.4 6.8-21.8zM104 72h112v16H104V72zM104 104h112v16H104v-16zM320 112h112v16H320v-16zM320 144h112v16H320v-16zM88 264h48v16H88v-16z"/><path d="M88 296h48v16H88v-16zM88 328h48v16H88v-16zM376 264h48v16h-48v-16zM376 296h48v16h-48v-16zM376 328h48v16h-48v-16z"/></svg><svg viewBox="0 0 24 24" id="telegram" xmlns="http://www.w3.org/2000/svg"><path d="M12 24c6.629 0 12-5.371 12-12S18.629 0 12 0 0 5.371 0 12s5.371 12 12 12zM5.491 11.74l11.57-4.461c.537-.194 1.006.131.832.943l.001-.001-1.97 9.281c-.146.658-.537.818-1.084.508l-3-2.211-1.447 1.394c-.16.16-.295.295-.605.295l.213-3.053 5.56-5.023c.242-.213-.054-.333-.373-.121l-6.871 4.326-2.962-.924c-.643-.204-.657-.643.136-.953z"/></svg><svg viewBox="1 -35 512 511" id="telegram2" xmlns="http://www.w3.org/2000/svg"><path d="M121.453 253.172l63.555 158.887 82.75-82.754 141.535 112.504L512 .5 0 205.98zm-39.933-47.64l244.046-97.946-194.074 117.363zm287.535-89.25l-161.98 148.187-19.485 73.426-36.035-90.086zm-149.852 219.23l9.817-36.996 15.144 12.035zm171.656 53.394L243.473 271.754 465.375 68.746zm0 0"/></svg></svg>